# xmcd
#
# Track frame offsets: 
#        150
#        14542
#        29620
#        41857
#        54685
#        70710
#        85367
#        98800
#        116320
#        130195
#        145530
#        161105
#        176522
#        191347
#        210240
#        221350
#        236635
#        249777
#        262677
#
# Disc length: 3670 seconds
#
# Revision: 1
# Processed by: cddbd v1.5.1PL0 Copyright (c) Steve Scherf et al.
# Submitted via: ExactAudioCopy v0.95b1
#
DISCID=fc0e5413
DTITLE=Razzy Bailey - Anthology
DYEAR=1999
DGENRE=Country
TTITLE0=Midnight Hauler
TTITLE1=Tonight She's Gonna Love Me (Like There Was No Tomorrow)
TTITLE2=If Love Had A Face
TTITLE3=I Ain't Got No Business Doin' Business Today
TTITLE4=I Can't Get Enough Of You
TTITLE5=Too Old To Play Cowboy
TTITLE6=Loving Up A Storm
TTITLE7=I Keep Coming Back
TTITLE8=What Time Do You Have To Be Back To Heaven
TTITLE9=Friends
TTITLE10=Anywhere There's A Jukebox
TTITLE11=Scratch My Back (And Whisper In My Ear)
TTITLE12=She Left Love All Over Me
TTITLE13=Everytime You Cross My Mind (You Break My Heart)
TTITLE14=Love's Gonna Fall Here Tonight
TTITLE15=After The Great Depression
TTITLE16=In The Midnight Hour
TTITLE17=9,999,999 Tears
TTITLE18=True Life Country Music
EXTD=
EXTT0=
EXTT1=
EXTT2=
EXTT3=
EXTT4=
EXTT5=
EXTT6=
EXTT7=
EXTT8=
EXTT9=
EXTT10=
EXTT11=
EXTT12=
EXTT13=
EXTT14=
EXTT15=
EXTT16=
EXTT17=
EXTT18=
PLAYORDER=
